<?xml version="1.0" encoding="UTF-8"?>
<svg version="1.1" xmlns="http://www.w3.org/2000/svg" width="820" height="820">
<g id="bubble">
<path d="M0 0 C4.54887115 -0.17904536 9.06860527 -0.0871677 13.61376953 0.109375 C14.67015625 0.15046387 15.72654297 0.19155273 16.81494141 0.23388672 C83.69789176 3.0521909 146.91996561 26.22233687 198.61376953 69.109375 C199.21640625 69.60904785 199.81904297 70.1087207 200.43994141 70.62353516 C207.6199644 76.62120785 214.57881656 82.85231708 221.30126953 89.359375 C221.87748047 89.90118408 222.45369141 90.44299316 223.04736328 91.0012207 C228.10640748 96.00831936 231.0541314 101.4840721 232.14501953 108.55078125 C232.06651782 116.39113953 231.33795853 121.89491302 226.07080078 127.85546875 C221.20789583 132.49581512 216.36421255 133.9812861 209.75439453 134.20703125 C198.15214695 133.83893964 191.44686324 127.39383857 183.73876953 119.296875 C177.67410762 113.09425188 171.52183511 107.3771265 164.61376953 102.109375 C163.414381 101.16948745 162.2151746 100.22936745 161.01611328 99.2890625 C131.71382584 76.56041768 98.45715391 61.19084469 62.61376953 52.109375 C61.36724609 51.78195313 60.12072266 51.45453125 58.83642578 51.1171875 C-2.80833998 36.33463551 -72.11851046 49.86435648 -125.78417969 82.57080078 C-131.09995944 85.92121218 -136.27005767 89.4628284 -141.38623047 93.109375 C-142.09150879 93.61114258 -142.79678711 94.11291016 -143.5234375 94.62988281 C-151.73617393 100.52183444 -159.44569807 106.72604936 -166.79248047 113.66796875 C-168.93950804 115.68889078 -171.12346417 117.59719081 -173.38623047 119.484375 C-220.72052557 160.74263222 -247.39723061 227.32571958 -251.92138672 288.82348633 C-254.19424368 324.25105235 -248.36954765 358.74711565 -236.60058594 392.15820312 C-218.26007445 444.54831606 -232.51975376 501.69668796 -244.37060547 554.015625 C-244.51881241 554.67627457 -244.66701935 555.33692413 -244.81971741 556.01759338 C-245.48498128 558.9776193 -246.16739204 561.93106482 -246.88598633 564.87866211 C-248.22335409 570.68979342 -248.82263009 574.57345781 -246.38623047 580.109375 C-244.35116112 582.29729854 -244.35116112 582.29729854 -241.38623047 583.109375 C-234.18262523 582.85958556 -228.76327153 580.24309535 -222.38623047 577.046875 C-220.86437134 576.30304565 -220.86437134 576.30304565 -219.31176758 575.54418945 C-214.8172086 573.34047223 -210.34446859 571.09635372 -205.89013672 568.8125 C-174.40315335 552.67188895 -139.01702655 546.32635261 -104.59765625 557.1105957 C-97.99651216 559.28428144 -91.58994296 561.82549474 -85.19873047 564.546875 C-26.39550835 589.36039129 41.36041676 587.4743893 100.05126953 563.671875 C109.12492615 559.89038713 117.93506721 555.7192699 126.61376953 551.109375 C127.31920898 550.74263672 128.02464844 550.37589844 128.75146484 549.99804688 C140.82385651 543.70357535 151.78970621 536.35415818 162.61376953 528.109375 C163.58056641 527.3771875 164.54736328 526.645 165.54345703 525.890625 C173.23140072 519.89746762 180.58018944 513.29298811 187.34423828 506.27734375 C189.61376953 504.109375 189.61376953 504.109375 191.61376953 504.109375 C191.98695313 503.23925781 191.98695313 503.23925781 192.36767578 502.3515625 C193.79294021 499.78698012 195.40350777 498.23066712 197.55126953 496.234375 C203.56195942 490.34870746 208.5475975 483.80117975 213.61376953 477.109375 C214.05978516 476.52945801 214.50580078 475.94954102 214.96533203 475.35205078 C251.74863173 427.47729558 272.15639693 368.35286302 271.92626953 308.046875 C271.92444672 307.05492126 271.9226239 306.06296753 271.92074585 305.04095459 C271.8748145 290.18762493 271.38885492 275.73988971 268.61376953 261.109375 C268.45279785 260.20880371 268.29182617 259.30823242 268.12597656 258.38037109 C265.44831109 243.68021914 261.15565996 229.53291577 256.60205078 215.328125 C250.30092868 195.66230409 250.30092868 195.66230409 254.43798828 185.99609375 C257.33550588 181.34658876 261.60277343 178.13721745 266.42626953 175.671875 C273.94276343 174.3454349 281.90266206 173.99993034 288.61376953 178.109375 C298.17632993 185.85912774 300.90343293 200.60348337 304.11376953 211.859375 C304.30731018 212.53234619 304.50085083 213.20531738 304.70025635 213.89868164 C310.46795646 234.02841161 314.42276942 254.27592067 316.61376953 275.109375 C316.75733887 276.42228516 316.75733887 276.42228516 316.90380859 277.76171875 C317.83767942 287.3615092 317.857278 296.97286741 317.86376953 306.609375 C317.86478165 307.96530762 317.86478165 307.96530762 317.86581421 309.34863281 C317.837013 333.76774937 315.10098771 357.29243015 309.61376953 381.109375 C309.39350098 382.07149902 309.17323242 383.03362305 308.94628906 384.02490234 C297.95482799 431.0638857 275.46937953 474.32740541 245.61376953 512.109375 C245.1907959 512.64949219 244.76782227 513.18960938 244.33203125 513.74609375 C237.21454598 522.72959678 229.12180404 530.80575011 221.05126953 538.921875 C220.52046783 539.45803436 219.98966614 539.99419373 219.44277954 540.54660034 C212.50427676 547.53811683 205.36807227 554.0121038 197.61376953 560.109375 C196.54159484 560.97847614 195.46986668 561.84812898 194.39892578 562.71875 C165.80521592 585.19988774 133.05020065 601.70887608 98.61376953 613.109375 C97.87352539 613.36267578 97.13328125 613.61597656 96.37060547 613.87695312 C86.53049644 617.22535668 76.42164182 619.28300973 66.23876953 621.296875 C64.35907471 621.67235474 64.35907471 621.67235474 62.44140625 622.05541992 C44.15479545 625.53998676 26.14467037 626.48873716 7.55126953 626.421875 C6.47083374 626.41971985 5.39039795 626.4175647 4.27722168 626.41534424 C-11.79926724 626.36392183 -27.52478805 625.9622815 -43.38623047 623.109375 C-44.52253906 622.91069824 -45.65884766 622.71202148 -46.82958984 622.50732422 C-69.71621381 618.40285848 -91.53828249 612.1549475 -112.96069336 603.13378906 C-133.77386449 594.44287082 -152.4112797 595.67500737 -173.02441406 604.1027832 C-181.86818809 607.84487674 -190.37833924 612.09505523 -198.83227539 616.64111328 C-218.24934979 627.05761833 -238.17649531 631.28235818 -259.79638672 625.140625 C-272.71073447 620.66969291 -281.34310393 612.78458955 -287.63232422 600.71875 C-290.85654311 593.77427855 -292.81479792 586.75877885 -293.38623047 579.109375 C-293.50224609 577.86220703 -293.50224609 577.86220703 -293.62060547 576.58984375 C-294.13214166 565.97546783 -291.53840367 555.87041545 -289.33300781 545.55566406 C-287.28347271 535.9583404 -285.30227533 526.34653849 -283.32373047 516.734375 C-283.1028476 515.66231812 -282.88196472 514.59026123 -282.65438843 513.48571777 C-279.35536554 497.42172822 -276.35035157 481.39907083 -274.38623047 465.109375 C-274.28818115 464.3356958 -274.19013184 463.5620166 -274.08911133 462.76489258 C-271.25411548 439.30207167 -276.25314893 419.07785452 -283.5680542 396.98648071 C-293.4310241 367.1771581 -298.17436048 337.23279592 -297.88623047 305.796875 C-297.88069153 304.60213562 -297.87515259 303.40739624 -297.8694458 302.17645264 C-297.7702839 283.88337017 -297.09101666 266.07703177 -293.38623047 248.109375 C-293.16128906 247.01689453 -292.93634766 245.92441406 -292.70458984 244.79882812 C-291.1519761 237.50624843 -289.34041417 230.30358242 -287.38623047 223.109375 C-287.16241699 222.25794922 -286.93860352 221.40652344 -286.70800781 220.52929688 C-276.67184385 182.66320254 -257.99562763 146.50528349 -233.38623047 116.109375 C-232.55368514 115.06421137 -231.72161642 114.01866783 -230.89013672 112.97265625 C-217.2577896 96.03263392 -201.87795648 79.12918171 -184.38623047 66.109375 C-182.98124438 65.03781047 -181.57630044 63.96619067 -180.17138672 62.89453125 C-143.40741909 35.10046638 -101.72317453 15.18012958 -56.38623047 6.109375 C-55.479375 5.92536133 -54.57251953 5.74134766 -53.63818359 5.55175781 C-35.8729768 2.03917552 -18.06464968 0.82800932 0 0 Z " fill="#FE1959" transform="translate(371.38623046875,96.890625)"/>
</g>
<g id="star">
<path d="M0 0 C2.3125 0.1875 2.3125 0.1875 5 1 C8.31645371 5.3269357 9.30532161 10.33254859 10.6875 15.5 C13.22780117 24.4185081 16.42597771 31.50059978 22 39 C22.88945313 40.22396484 22.88945313 40.22396484 23.796875 41.47265625 C35.02463782 55.45937789 51.88225375 60.35649955 68.453125 65.10546875 C71 66 71 66 73 68 C73.125 70.9375 73.125 70.9375 72 74 C69.32614861 75.15103503 66.76074668 76.11286834 64 77 C63.27458008 77.23678467 62.54916016 77.47356934 61.80175781 77.7175293 C60.32024327 78.19621538 58.83746619 78.6710098 57.35351562 79.14208984 C39.12810211 84.97251305 25.67085117 94.11588745 16.4375 111.3125 C13.12117162 118.11656249 10.97954383 125.11582602 9.04077148 132.4230957 C8.81591064 133.24769287 8.5910498 134.07229004 8.359375 134.921875 C8.07271973 136.02934082 8.07271973 136.02934082 7.78027344 137.15917969 C7 139 7 139 4 141 C1.38581849 140.83661366 0.32308025 140.34008448 -1.484375 138.4375 C-3.50130512 135.19377733 -4.30527347 131.78397971 -5.25 128.125 C-10.18713772 110.42031797 -19.02063483 95.75770759 -35 86 C-42.39907292 81.84531552 -50.44649779 79.47107479 -58.5390625 77.05419922 C-59.72628906 76.69672607 -59.72628906 76.69672607 -60.9375 76.33203125 C-61.64777344 76.12296143 -62.35804688 75.9138916 -63.08984375 75.69848633 C-65 75 -65 75 -68 73 C-68.4375 70.5625 -68.4375 70.5625 -68 68 C-64.40541382 64.27808516 -59.32378001 63.50291455 -54.5 62.1875 C-34.67178793 56.45224296 -21.01825191 47.06710386 -11 29 C-7.5042224 22.65581103 -5.66183357 15.80106412 -3.74902344 8.8503418 C-2.81149606 5.48629539 -1.95361526 2.9304229 0 0 Z " fill="#FE1959" transform="translate(714,114)"/>
</g>
<g id="eyes">
<g id="eye-right">
<path d="M0 0 C9.27139172 4.28974841 14.55758705 12.36249846 18.12036133 21.6887207 C20.16579161 27.9514393 20.01139392 34.17868373 19.99609375 40.7109375 C20.0013356 42.0260733 20.00657745 43.34120911 20.01197815 44.69619751 C20.02086369 47.46813625 20.01853951 50.2397862 20.00854492 53.01171875 C19.99707147 56.53406719 20.01726356 60.05541058 20.04646206 63.57762718 C20.06940521 66.97628035 20.06234906 70.37470917 20.05859375 73.7734375 C20.06982773 75.02273041 20.08106171 76.27202332 20.09263611 77.55917358 C19.99666959 89.74697276 16.57784983 100.431658 8.08984375 109.4375 C1.02074379 115.77141356 -5.47529459 116.50504698 -14.7109375 116.27734375 C-23.28046289 115.35212245 -29.24637696 111.16454318 -34.6796875 104.609375 C-41.27616913 94.34818136 -42.58756545 82.96565822 -42.67578125 71.09765625 C-42.68788887 69.53234413 -42.68788887 69.53234413 -42.70024109 67.93540955 C-42.71404389 65.72738282 -42.72478297 63.51933509 -42.73266602 61.3112793 C-42.74413955 59.07814169 -42.76451707 56.84503049 -42.79418945 54.61206055 C-43.23877676 21.10408667 -43.23877676 21.10408667 -32.4375 7.875 C-23.34809853 -0.66903738 -12.18576003 -4.00627727 0 0 Z " fill="#FE1959" transform="translate(468.4375,342.125)"/>
</g>
<g id="eye-left">
<path d="M0 0 C8.85571268 6.25295842 13.47460191 14.33225009 15.74888611 24.85171509 C16.56581291 29.94772027 16.50554923 35.06044162 16.515625 40.2109375 C16.5222818 41.41034973 16.5289386 42.60976196 16.53579712 43.84552002 C16.54588233 46.37356035 16.55061543 48.90162708 16.55029297 51.4296875 C16.55465836 55.26347527 16.59100358 59.09610349 16.62890625 62.9296875 C16.63477706 65.39843361 16.63874468 67.86718513 16.640625 70.3359375 C16.65499603 71.46553894 16.66936707 72.59514038 16.68417358 73.75897217 C16.61548531 85.93916855 13.60050623 97.42747348 5.1796875 106.5390625 C-3.3198571 113.57415854 -10.89693338 114.5439188 -21.8203125 113.5390625 C-29.69034239 111.33502408 -35.30988684 106.22451564 -39.8203125 99.5390625 C-43.53285118 92.27098304 -45.92013112 85.394484 -45.98144531 77.20483398 C-45.99105286 76.16282333 -46.0006604 75.12081268 -46.01055908 74.04722595 C-46.01480896 72.92949295 -46.01905884 71.81175995 -46.0234375 70.66015625 C-46.02913757 69.49710464 -46.03483765 68.33405304 -46.04071045 67.13575745 C-46.0501498 64.67376613 -46.0566902 62.21176225 -46.06054688 59.74975586 C-46.0702141 56.0145814 -46.10123276 52.2799664 -46.1328125 48.54492188 C-46.13934703 46.14583658 -46.14459573 43.74674737 -46.1484375 41.34765625 C-46.1607843 40.24409286 -46.1731311 39.14052948 -46.18585205 38.00352478 C-46.14864956 24.81293076 -43.14961785 13.48454839 -34.0546875 3.625 C-24.52808401 -5.08626355 -11.29203987 -6.62713159 0 0 Z " fill="#FE1959" transform="translate(299.8203125,344.4609375)"/>
</g>
</g>
</svg>
